<?xml version="1.0" standalone="no"?>
<!DOCTYPE svg PUBLIC "-//W3C//DTD SVG 20010904//EN"
 "http://www.w3.org/TR/2001/REC-SVG-20010904/DTD/svg10.dtd">
<svg version="1.0" xmlns="http://www.w3.org/2000/svg"
 width="3508.000000pt" height="2481.000000pt" viewBox="0 0 3508.000000 2481.000000"
 preserveAspectRatio="xMidYMid meet">
<metadata>
Created by potrace 1.15, written by Peter Selinger 2001-2017
</metadata>
<g transform="translate(0.000000,2481.000000) scale(0.100000,-0.100000)"
fill="#000000" stroke="none">
<path d="M10731 15524 c-219 -59 -421 -279 -637 -699 -180 -348 -298 -652
-674 -1735 -349 -1004 -523 -1450 -754 -1925 -500 -1028 -1036 -1540 -1695
-1620 -88 -11 594 -13 3904 -12 2206 0 3994 2 3975 4 -217 20 -318 42 -465 98
-209 80 -375 195 -586 405 -282 281 -508 618 -759 1135 -228 467 -396 893
-732 1855 -388 1113 -525 1464 -703 1808 -284 546 -567 769 -874 686z"/>
<path d="M24975 15426 c-197 -48 -292 -197 -315 -491 -5 -66 -10 -123 -10
-127 0 -5 -45 -8 -100 -8 l-100 0 0 -64 0 -64 98 5 99 6 6 -153 c9 -200 8
-588 -2 -716 -9 -123 -28 -158 -97 -176 -42 -12 -44 -14 -44 -50 l0 -38 260 0
260 0 0 56 0 55 -82 -7 -81 -7 6 33 c4 18 7 250 7 515 l0 483 165 7 165 7 0
54 0 54 -165 0 -165 0 0 163 c0 173 11 239 50 302 41 67 130 93 200 57 33 -16
34 -19 32 -68 -3 -43 1 -56 23 -82 24 -28 33 -32 79 -32 38 0 58 5 74 20 40
38 46 116 14 177 -43 80 -232 125 -377 89z"/>
<path d="M19736 15341 c-88 -58 -93 -195 -10 -260 35 -27 107 -28 150 -2 59
36 82 135 48 207 -32 68 -127 95 -188 55z"/>
<path d="M15763 15315 c-213 -46 -343 -209 -343 -429 0 -100 20 -173 67 -244
69 -104 136 -149 452 -306 223 -111 260 -135 328 -209 62 -68 88 -142 80 -228
-17 -188 -195 -302 -425 -271 -212 28 -361 166 -394 365 l-11 67 -53 0 -54 0
6 -242 c3 -134 7 -253 10 -265 4 -21 10 -23 70 -23 l66 0 -4 48 -3 47 75 -37
c106 -53 222 -78 361 -78 63 0 145 7 184 15 164 35 296 131 357 261 27 58 32
82 36 169 5 120 -12 192 -64 271 -74 112 -159 170 -451 310 -94 46 -201 101
-237 124 -132 84 -194 185 -183 301 10 114 89 211 199 244 108 32 253 9 348
-54 95 -63 180 -221 192 -356 3 -29 5 -30 56 -33 l52 -3 0 275 0 276 -71 0
-72 0 7 -51 7 -51 -31 22 c-115 82 -383 123 -557 85z"/>
<path d="M21832 15118 c-13 -52 -85 -180 -127 -226 -47 -52 -117 -92 -160 -92
-24 0 -25 -3 -25 -60 l0 -60 94 0 95 0 -2 -417 c-2 -304 1 -434 11 -478 26
-127 103 -226 199 -259 109 -37 269 -11 365 59 47 34 138 140 138 160 0 6 -15
22 -34 37 l-33 26 -49 -50 c-59 -61 -132 -98 -195 -98 -90 0 -148 68 -169 200
-15 97 -13 807 2 816 7 4 101 10 210 12 l198 5 0 53 0 54 -205 0 -205 0 0 170
0 170 -51 0 c-44 0 -52 -3 -57 -22z"/>
<path d="M17328 14829 c-136 -14 -251 -71 -355 -176 -129 -130 -195 -301 -194
-508 0 -134 13 -193 65 -301 79 -160 221 -274 401 -319 75 -19 233 -19 305 0
234 62 411 259 464 517 94 455 -235 833 -686 787z m211 -135 c119 -64 196
-222 221 -453 19 -172 -8 -342 -72 -462 -61 -117 -151 -165 -288 -157 -91 5
-142 30 -209 103 -155 168 -200 559 -91 793 37 80 63 115 107 149 91 70 233
82 332 27z"/>
<path d="M18800 14828 c-142 -13 -250 -67 -366 -182 -121 -122 -184 -251 -203
-419 -10 -88 2 -229 25 -302 52 -160 164 -291 304 -356 123 -58 301 -76 425
-44 101 27 204 84 280 156 39 37 78 81 87 97 l18 30 -35 26 -34 26 -64 -64
c-44 -44 -88 -76 -143 -102 -76 -38 -81 -39 -183 -39 -92 0 -113 3 -154 24
-166 82 -267 284 -267 533 1 230 90 412 237 484 126 62 335 32 386 -56 15 -25
15 -31 2 -64 -40 -94 8 -186 98 -186 56 0 92 23 111 70 56 139 -55 290 -255
347 -86 25 -164 31 -269 21z"/>
<path d="M20798 14829 c-150 -16 -269 -78 -379 -197 -135 -146 -196 -351 -169
-566 33 -261 176 -451 399 -528 56 -19 87 -23 196 -23 81 0 149 5 180 14 73
21 184 74 238 116 50 38 127 128 127 149 0 7 -14 23 -31 35 l-32 23 -24 -30
c-28 -37 -139 -111 -209 -140 -160 -67 -330 -43 -434 61 -87 86 -150 277 -150
453 l0 61 113 6 c61 4 209 7 328 7 119 0 264 3 322 7 l107 6 0 41 c0 69 -28
178 -64 251 -91 185 -282 279 -518 254z m175 -123 c83 -35 141 -139 161 -288
l5 -38 -310 0 -310 0 7 38 c25 138 126 264 233 291 20 5 45 12 56 15 30 7 123
-3 158 -18z"/>
<path d="M25868 14829 c-262 -27 -473 -234 -535 -523 -23 -108 -13 -300 19
-388 74 -198 232 -342 433 -393 77 -20 230 -19 309 1 203 52 372 221 444 442
32 102 41 285 19 383 -75 315 -358 512 -689 478z m172 -115 c237 -70 351 -588
201 -917 -29 -62 -73 -111 -130 -145 -41 -24 -56 -27 -141 -27 -81 0 -102 4
-144 25 -246 126 -330 663 -145 939 81 121 214 168 359 125z"/>
<path d="M27487 14828 c-86 -11 -188 -69 -274 -155 l-73 -72 0 42 c0 23 -3 72
-7 110 l-6 67 -39 0 c-25 0 -53 -9 -79 -27 -35 -23 -58 -29 -150 -37 l-109
-10 0 -54 0 -54 88 7 87 7 -2 -189 c-2 -103 -4 -309 -6 -458 -3 -240 -5 -274
-22 -307 -19 -38 -65 -68 -104 -68 -18 0 -21 -6 -21 -40 l0 -40 260 0 260 0 0
55 0 56 -72 -7 -73 -6 -3 384 -2 385 40 61 c71 106 175 186 266 206 30 7 32 6
42 -36 14 -56 49 -88 101 -95 87 -12 149 53 138 145 -12 104 -96 150 -240 130z"/>
<path d="M19792 14794 c-24 -12 -68 -25 -98 -28 -30 -3 -79 -9 -109 -12 l-55
-5 0 -56 0 -56 88 7 87 6 -3 -347 c-1 -192 -6 -403 -11 -470 -10 -145 -26
-176 -97 -195 -42 -12 -44 -14 -44 -50 l0 -38 260 0 260 0 0 56 0 55 -77 -6
-78 -7 3 586 3 586 -43 -1 c-24 -1 -63 -12 -86 -25z"/>
<path d="M22440 14741 l0 -59 58 5 58 5 13 -43 c27 -92 90 -238 292 -672 115
-247 209 -452 209 -457 0 -17 -118 -316 -148 -376 -35 -70 -101 -134 -137
-134 -22 0 -25 4 -25 34 0 18 -10 48 -23 67 -20 30 -28 34 -74 37 -45 3 -54 0
-81 -27 -16 -17 -33 -46 -36 -65 -20 -106 55 -179 184 -179 126 0 210 64 292
220 61 116 103 225 313 811 247 689 257 713 357 777 44 28 47 33 47 73 l1 42
-200 0 -200 0 0 -58 0 -59 75 5 c41 2 75 2 75 -2 0 -4 -7 -21 -16 -37 -21 -42
-96 -248 -199 -549 -48 -140 -90 -258 -94 -263 -8 -8 -273 553 -317 669 -33
88 -32 146 2 173 14 11 41 23 60 27 33 6 34 8 34 50 l0 44 -260 0 -260 0 0
-59z"/>
<path d="M24270 12858 c-88 -59 -93 -182 -11 -251 26 -22 43 -27 83 -27 45 0
54 4 88 38 64 63 66 154 6 219 -27 29 -41 36 -82 40 -40 4 -56 0 -84 -19z"/>
<path d="M21765 12840 c-164 -33 -286 -134 -335 -275 -57 -167 -25 -332 89
-457 66 -73 131 -113 382 -238 226 -113 296 -157 353 -220 73 -81 97 -185 67
-293 -17 -60 -87 -139 -151 -172 -187 -95 -469 -24 -585 148 -39 57 -75 160
-75 213 l0 34 -55 0 -55 0 0 -77 c0 -43 3 -162 7 -265 l6 -188 70 0 70 0 -6
45 c-4 25 -5 45 -2 45 2 0 31 -14 64 -31 199 -100 503 -106 698 -13 170 81
263 244 250 439 -9 143 -72 254 -195 347 -33 25 -177 103 -319 173 -247 122
-261 130 -328 199 -79 79 -95 115 -95 212 0 116 80 222 193 258 77 24 198 18
282 -14 123 -47 230 -196 257 -356 l12 -74 48 0 48 0 0 275 0 275 -65 0 -65 0
0 -45 0 -44 -69 35 c-122 62 -356 92 -496 64z"/>
<path d="M15400 12751 l0 -60 88 6 87 6 -3 -714 c-3 -645 -5 -717 -20 -748
-22 -45 -59 -71 -110 -78 l-42 -6 0 -43 0 -44 398 0 c408 0 479 5 609 45 298
90 513 319 581 618 23 104 23 337 -2 441 -68 294 -250 484 -556 580 -152 48
-240 56 -652 56 l-378 0 0 -59z m760 -55 c353 -58 555 -280 590 -651 31 -324
-99 -623 -334 -770 -133 -83 -254 -109 -478 -103 -75 2 -138 5 -140 8 -2 3 -1
327 2 720 5 686 6 716 24 747 11 18 34 39 50 47 40 20 173 21 286 2z"/>
<path d="M18732 12638 c-3 -13 -23 -58 -45 -101 -62 -124 -166 -217 -243 -217
-23 0 -24 -3 -24 -60 l0 -60 93 0 93 0 -4 -379 c-5 -404 1 -496 40 -600 29
-78 107 -154 178 -175 116 -34 263 -11 357 57 45 32 143 143 143 162 0 5 -16
22 -35 38 l-34 27 -43 -46 c-65 -70 -120 -99 -195 -99 -98 0 -141 44 -168 171
-11 54 -15 156 -15 455 l0 387 31 6 c17 3 112 6 210 6 l179 0 0 55 0 55 -210
0 -210 0 0 170 0 170 -46 0 c-39 0 -47 -3 -52 -22z"/>
<path d="M17659 12350 c-178 -17 -325 -97 -375 -205 -27 -57 -30 -101 -10
-149 19 -46 52 -66 106 -66 51 0 84 22 101 68 11 29 3 99 -14 120 -17 21 22
63 88 97 83 42 198 47 265 13 25 -13 55 -38 67 -56 33 -50 53 -156 53 -285 l0
-114 -87 -7 c-253 -21 -453 -95 -568 -210 -67 -67 -88 -114 -93 -205 -5 -88 9
-141 51 -197 63 -83 167 -124 312 -124 131 0 232 37 339 124 l55 45 6 -64 7
-65 184 0 184 0 0 56 0 57 -87 -7 -88 -6 3 415 c2 261 -1 436 -7 472 -22 119
-85 210 -176 255 -67 34 -196 49 -316 38z m281 -854 l0 -174 -42 -34 c-126
-101 -271 -135 -368 -85 -146 73 -126 278 36 373 81 47 236 91 332 93 l42 1 0
-174z"/>
<path d="M19884 12350 c-185 -20 -324 -94 -378 -202 -29 -58 -33 -103 -12
-152 19 -47 51 -66 109 -66 39 0 53 5 72 26 13 14 27 39 30 55 7 32 -2 87 -17
106 -16 21 27 69 90 100 81 40 197 45 262 11 87 -45 110 -105 117 -309 l5
-146 -91 -7 c-202 -16 -378 -71 -499 -156 -116 -82 -162 -163 -162 -288 0 -86
30 -153 94 -209 61 -54 120 -74 237 -80 153 -9 250 22 368 118 l59 47 6 -36
c3 -21 6 -49 6 -64 l0 -28 185 0 185 0 0 56 0 57 -91 -7 c-84 -6 -90 -6 -85
11 3 10 6 203 7 428 2 435 0 462 -48 564 -22 46 -82 105 -132 131 -72 36 -198
52 -317 40z m276 -854 l0 -174 -42 -34 c-63 -50 -106 -74 -167 -92 -192 -56
-332 52 -291 224 28 119 150 193 395 244 11 2 39 4 63 5 l42 1 0 -174z"/>
<path d="M23335 12349 c-256 -26 -478 -227 -552 -501 -24 -88 -24 -279 1 -373
50 -194 189 -346 376 -412 99 -35 255 -43 350 -19 87 22 193 74 257 125 55 43
133 134 133 154 0 7 -15 22 -33 35 l-32 22 -40 -44 c-131 -146 -346 -206 -498
-138 -113 50 -216 191 -253 347 -19 85 -22 266 -5 350 30 141 117 267 222 321
103 53 283 41 359 -23 45 -38 54 -59 35 -85 -19 -28 -20 -110 -1 -147 36 -69
148 -69 196 0 43 59 29 158 -34 242 -76 103 -286 166 -481 146z"/>
<path d="M25328 12350 c-137 -16 -252 -73 -354 -176 -124 -125 -194 -300 -194
-487 0 -325 174 -570 455 -642 76 -19 222 -19 304 0 142 34 299 134 373 237
l21 30 -32 31 -31 31 -47 -46 c-143 -140 -360 -198 -517 -138 -110 42 -189
148 -230 308 -15 57 -38 272 -30 281 2 2 197 7 435 12 237 4 432 9 434 11 2 2
-1 42 -6 90 -32 314 -261 495 -581 458z m143 -111 c101 -22 181 -135 196 -280
l6 -59 -311 0 -311 0 19 69 c41 148 123 238 244 267 66 16 94 16 157 3z"/>
<path d="M26824 12350 c-91 -13 -216 -66 -294 -125 l-35 -26 -3 48 c-4 88 -7
93 -56 93 -26 0 -48 -6 -56 -15 -18 -22 -105 -45 -169 -45 -96 0 -101 -4 -101
-68 l0 -55 85 7 85 7 -6 -418 c-2 -230 -7 -440 -9 -466 -6 -71 -37 -115 -91
-129 -42 -12 -44 -14 -44 -50 l0 -38 255 0 255 0 0 56 0 56 -72 -7 -73 -7 3
449 3 448 43 40 c129 121 321 147 425 58 93 -79 112 -160 118 -498 5 -291 -4
-423 -34 -464 -11 -15 -40 -32 -66 -41 -45 -14 -47 -17 -47 -52 l0 -38 260 0
260 0 0 56 0 56 -77 -7 -78 -7 3 369 c3 380 -1 436 -39 565 -33 113 -121 204
-222 232 -67 18 -159 25 -223 16z"/>
<path d="M28194 12349 c-290 -33 -528 -285 -563 -597 -44 -397 195 -700 569
-719 191 -9 339 46 471 177 104 102 108 111 64 144 l-34 26 -65 -64 c-45 -45
-87 -76 -142 -103 -76 -37 -82 -38 -184 -38 -90 0 -112 3 -153 24 -166 82
-267 284 -267 533 1 231 89 412 239 485 50 25 67 28 156 28 88 0 106 -3 155
-27 32 -16 62 -39 73 -56 15 -27 15 -33 2 -66 -40 -95 8 -186 98 -186 84 0
136 71 123 167 -25 183 -265 303 -542 272z"/>
<path d="M29480 12349 c-230 -26 -428 -195 -510 -435 -44 -127 -46 -318 -5
-457 44 -149 167 -303 293 -365 265 -131 637 -47 799 181 l33 45 -37 28 -36
27 -19 -26 c-41 -56 -169 -133 -271 -164 -74 -22 -190 -21 -257 3 -69 25 -148
96 -187 171 -41 77 -72 206 -80 324 l-6 96 84 6 c46 4 185 7 309 7 124 0 283
3 354 7 l129 6 -7 76 c-10 119 -41 206 -103 289 -107 142 -276 205 -483 181z
m195 -129 c74 -36 130 -139 149 -277 l6 -43 -311 0 -311 0 7 33 c19 92 79 204
132 243 101 75 229 92 328 44z"/>
<path d="M24327 12314 c-33 -18 -70 -27 -120 -30 -143 -10 -137 -7 -137 -71
l0 -56 83 7 83 7 -3 -363 c-5 -564 -5 -557 -32 -601 -18 -29 -33 -40 -67 -49
-42 -12 -44 -14 -44 -50 l0 -38 255 0 255 0 0 56 0 56 -72 -7 -73 -7 3 586 4
586 -44 -1 c-25 0 -63 -11 -91 -25z"/>
<path d="M23050 10338 c-71 -20 -113 -86 -126 -195 l-7 -63 -38 0 c-37 0 -39
-2 -39 -30 0 -28 2 -30 40 -30 l40 0 0 -198 c0 -180 -2 -200 -18 -215 -10 -10
-24 -17 -30 -17 -7 0 -12 -9 -12 -20 0 -19 7 -20 110 -20 l110 0 0 25 c0 21
-5 25 -30 25 l-30 0 2 213 3 212 68 3 c64 3 67 4 67 27 0 24 -2 25 -71 25
l-72 0 5 80 c6 96 27 135 74 135 24 0 30 -5 32 -28 2 -16 14 -34 28 -43 22
-15 26 -15 49 0 47 31 23 97 -43 116 -44 12 -65 12 -112 -2z"/>
<path d="M16850 10330 c-8 -5 -29 -10 -47 -10 -47 0 -63 -9 -63 -36 0 -21 5
-24 38 -24 l37 0 -3 -317 c-2 -276 -5 -319 -19 -335 -9 -10 -22 -18 -30 -18
-7 0 -13 -9 -13 -20 0 -19 7 -20 110 -20 l110 0 0 25 c0 21 -5 25 -30 25 l-30
0 0 370 0 370 -22 0 c-13 0 -30 -5 -38 -10z"/>
<path d="M25290 10330 c-8 -5 -29 -10 -47 -10 -47 0 -63 -9 -63 -36 0 -21 5
-24 35 -24 l35 0 0 -304 c0 -168 -4 -316 -9 -329 -6 -14 -19 -28 -30 -32 -12
-3 -21 -15 -21 -26 0 -18 8 -19 110 -19 l110 0 0 25 c0 22 -4 25 -32 25 l-33
0 3 182 c3 181 3 183 27 205 32 28 96 48 129 39 68 -17 86 -71 86 -258 0 -125
-2 -140 -20 -158 -11 -11 -24 -20 -30 -20 -5 0 -10 -9 -10 -20 0 -19 7 -20
110 -20 l110 0 0 25 c0 21 -5 25 -29 25 l-29 0 -4 183 c-4 205 -14 242 -77
284 -48 32 -137 32 -208 -2 l-53 -24 0 149 c0 149 0 150 -22 150 -13 0 -30 -5
-38 -10z"/>
<path d="M27140 10330 c-8 -5 -29 -10 -47 -10 -47 0 -63 -9 -63 -36 0 -21 5
-24 35 -24 l35 0 0 -315 c0 -302 -1 -316 -20 -335 -11 -11 -24 -20 -30 -20 -5
0 -10 -9 -10 -20 0 -19 7 -20 110 -20 l110 0 0 25 c0 21 -5 25 -30 25 l-30 0
0 370 0 370 -22 0 c-13 0 -30 -5 -38 -10z"/>
<path d="M15400 10261 c0 -29 2 -31 38 -31 l37 0 -3 -287 c-1 -159 -5 -298 -7
-310 -3 -12 -17 -25 -35 -31 -20 -8 -30 -18 -30 -31 0 -20 5 -21 170 -21 194
0 253 10 309 51 62 45 92 123 77 203 -12 62 -96 136 -156 136 -11 0 -20 5 -20
10 0 6 6 10 13 10 24 0 86 61 97 96 16 48 8 115 -18 152 -12 16 -45 40 -74 53
-47 20 -72 23 -225 27 l-173 4 0 -31z m339 -46 c40 -20 53 -47 53 -106 0 -96
-59 -149 -166 -149 l-59 0 6 121 c6 148 16 164 89 156 26 -3 61 -13 77 -22z
m37 -328 c67 -35 92 -124 55 -199 -30 -62 -68 -81 -173 -86 l-88 -4 0 157 0
157 88 -4 c53 -3 99 -11 118 -21z"/>
<path d="M17860 10260 c0 -28 2 -30 38 -30 l37 0 -3 -287 c-1 -159 -4 -298 -7
-310 -3 -12 -17 -25 -35 -31 -20 -8 -30 -18 -30 -31 0 -20 6 -21 120 -21 l120
0 0 30 c0 30 -1 31 -35 24 l-35 -6 0 284 c0 306 5 344 46 354 17 4 24 13 24
30 0 24 0 24 -120 24 l-120 0 0 -30z"/>
<path d="M23460 10175 l0 -115 25 0 c23 0 25 4 25 43 0 94 48 135 158 136 l52
1 0 -292 c0 -312 -4 -340 -48 -346 -16 -2 -22 -10 -22 -28 l0 -24 125 0 125 0
0 30 c0 30 -1 30 -40 24 l-40 -7 0 323 0 323 70 -5 c78 -6 103 -21 126 -75 8
-18 14 -48 14 -68 0 -31 3 -35 25 -35 l25 0 0 115 0 115 -310 0 -310 0 0 -115z"/>
<path d="M29570 10260 c0 -28 2 -30 40 -30 l41 0 -7 -132 c-23 -500 -23 -498
-64 -498 -15 0 -20 -7 -20 -25 l0 -25 100 0 100 0 0 30 c0 30 -1 31 -35 24
l-35 -6 0 84 c0 47 3 167 7 267 l6 182 57 -138 c31 -76 87 -209 125 -295 59
-132 73 -158 91 -158 19 0 36 35 133 276 62 152 116 285 120 297 4 11 13 -82
21 -221 12 -222 12 -243 -4 -266 -9 -14 -25 -26 -36 -26 -15 0 -20 -7 -20 -25
l0 -25 120 0 120 0 0 30 c0 30 -1 31 -34 25 l-33 -7 -7 89 c-3 48 -11 179 -17
291 -13 221 -9 247 36 258 18 4 25 13 25 30 0 24 -1 25 -81 22 l-81 -3 -72
-175 c-40 -96 -92 -224 -116 -285 -24 -60 -46 -113 -49 -117 -3 -3 -63 125
-132 285 l-125 292 -87 3 -87 3 0 -31z"/>
<path d="M19391 10185 c-16 -46 -73 -105 -100 -105 -17 0 -21 -6 -21 -30 0
-28 2 -30 39 -30 l39 0 4 -192 c3 -209 10 -239 64 -274 61 -40 176 -12 224 55
19 27 19 29 1 45 -17 15 -19 15 -37 -5 -10 -12 -34 -28 -52 -36 -30 -12 -37
-12 -57 1 -36 24 -45 75 -45 254 l0 162 90 0 c89 0 90 0 90 25 0 25 -1 25 -90
25 l-90 0 0 70 c0 66 -1 70 -23 70 -17 0 -26 -9 -36 -35z"/>
<path d="M20090 10167 c-20 -41 -34 -56 -67 -72 -34 -16 -42 -25 -43 -47 0
-26 3 -28 40 -28 l40 0 0 -182 c0 -155 3 -189 19 -223 22 -49 40 -65 88 -76
58 -12 116 7 163 54 39 38 40 41 24 59 -17 18 -18 18 -43 -6 -37 -35 -77 -49
-103 -35 -39 21 -48 67 -48 249 l0 170 90 0 c89 0 90 0 90 25 0 25 -1 25 -90
25 l-90 0 0 70 c0 66 -1 70 -22 70 -18 0 -29 -13 -48 -53z"/>
<path d="M21124 10198 c-14 -46 -57 -98 -90 -110 -28 -10 -34 -17 -34 -40 0
-26 3 -28 40 -28 l40 0 0 -185 c0 -196 6 -231 48 -268 54 -49 157 -39 216 21
39 38 44 53 23 71 -11 8 -18 6 -33 -10 -30 -35 -79 -51 -108 -38 -39 18 -46
58 -46 245 l0 174 85 0 c84 0 85 0 85 25 0 25 -1 25 -85 25 l-85 0 0 70 c0 67
-1 70 -24 70 -17 0 -27 -7 -32 -22z"/>
<path d="M28393 10149 c-29 -8 -76 -52 -85 -80 -3 -8 -13 -7 -35 5 -41 21
-142 21 -191 0 -130 -54 -171 -217 -77 -311 l33 -33 -29 -17 c-36 -21 -63 -76
-54 -110 3 -13 17 -35 30 -47 23 -22 23 -22 4 -34 -28 -18 -59 -72 -59 -105 0
-50 26 -84 87 -114 53 -25 68 -28 163 -28 95 0 111 3 162 28 69 34 100 73 106
137 10 106 -49 146 -250 167 -133 13 -168 23 -168 48 0 30 42 45 125 45 95 0
145 19 192 73 57 65 66 137 28 213 -14 27 -22 57 -19 66 6 21 44 45 44 29 0
-20 41 -34 66 -22 21 9 24 8 24 -9 0 -14 7 -20 24 -20 19 0 27 -8 37 -37 6
-21 54 -129 105 -240 52 -111 94 -207 94 -213 0 -29 -65 -168 -89 -189 -24
-23 -26 -23 -30 -5 -5 28 -21 44 -45 44 -34 0 -49 -16 -49 -51 0 -63 74 -89
140 -50 43 27 72 81 136 256 30 83 78 215 108 295 41 114 60 152 86 176 56 52
47 64 -52 64 -84 0 -85 0 -85 -25 0 -21 5 -25 30 -25 l29 0 -18 -42 c-9 -24
-37 -100 -61 -170 -24 -71 -46 -128 -50 -128 -3 0 -29 53 -59 118 -87 188 -93
214 -50 225 11 3 19 14 19 26 0 20 -5 21 -110 21 -110 0 -110 0 -110 24 0 14
-10 32 -22 40 -25 18 -30 18 -75 5z m-169 -120 c101 -80 72 -279 -41 -279 -72
0 -116 56 -117 150 -2 115 85 186 158 129z m76 -529 c110 -32 86 -140 -38
-170 -169 -40 -302 68 -209 169 21 22 26 23 118 17 53 -4 111 -11 129 -16z"/>
<path d="M16134 10080 c-6 -6 -34 -13 -62 -17 -46 -5 -52 -8 -52 -29 0 -21 5
-24 35 -24 l35 0 0 -179 c0 -189 -6 -225 -39 -236 -12 -3 -21 -15 -21 -26 0
-18 8 -19 110 -19 l110 0 0 25 c0 22 -4 25 -32 25 l-33 0 3 245 3 245 -24 0
c-12 0 -28 -5 -33 -10z"/>
<path d="M16405 10075 c-16 -8 -45 -14 -62 -15 -28 0 -33 -4 -33 -25 0 -22 4
-25 35 -25 l35 0 0 -179 c0 -189 -6 -225 -39 -236 -12 -3 -21 -15 -21 -26 0
-18 8 -19 110 -19 l110 0 0 25 c0 21 -5 25 -30 25 l-30 0 0 163 0 164 33 36
c17 20 49 44 70 52 35 14 37 14 37 -3 0 -25 20 -42 50 -42 14 0 31 5 38 12 17
17 15 74 -4 92 -35 35 -150 10 -198 -43 -23 -25 -36 -13 -36 32 0 31 -16 34
-65 12z"/>
<path d="M17144 10065 c-28 -14 -57 -36 -64 -49 -16 -31 -16 -72 0 -91 31 -38
96 2 84 52 -8 31 10 51 56 63 81 22 130 -30 130 -139 l0 -48 -52 -6 c-179 -20
-290 -113 -259 -218 15 -49 49 -77 107 -88 62 -12 127 1 171 35 l32 25 7 -26
c6 -24 9 -25 85 -25 78 0 79 0 79 25 0 22 -4 25 -37 25 l-38 0 0 193 c0 214
-6 240 -68 277 -50 31 -167 28 -233 -5z m206 -334 c0 -65 -2 -71 -27 -89 -42
-29 -98 -43 -133 -31 -59 21 -61 108 -4 146 30 19 101 41 137 42 27 1 27 1 27
-68z"/>
<path d="M18290 10081 c-8 -6 -36 -13 -62 -16 -42 -6 -48 -10 -48 -31 0 -21 5
-24 35 -24 l35 0 0 -179 c0 -189 -6 -225 -39 -236 -12 -3 -21 -15 -21 -26 0
-18 8 -19 110 -19 l110 0 0 25 c0 21 -5 25 -30 25 l-30 0 0 184 0 185 34 26
c66 51 145 43 181 -18 16 -26 20 -56 23 -174 5 -164 1 -189 -33 -205 -14 -6
-25 -19 -25 -30 0 -16 10 -18 110 -18 l110 0 0 25 c0 21 -5 25 -29 25 l-29 0
-4 183 c-3 205 -13 242 -77 284 -48 32 -137 32 -208 -1 l-51 -24 -6 24 c-7 25
-30 31 -56 15z"/>
<path d="M18898 10068 c-46 -27 -68 -71 -68 -137 0 -72 33 -107 151 -157 107
-46 139 -71 139 -112 0 -47 -31 -67 -107 -67 -62 0 -66 2 -99 38 -19 20 -37
51 -41 67 -4 21 -11 30 -24 30 -17 0 -19 -9 -19 -95 l0 -95 30 0 c22 0 28 4
24 15 -8 19 -5 19 42 -1 23 -10 67 -17 105 -17 91 0 146 30 173 94 40 97 -2
163 -141 223 -48 21 -100 50 -115 64 -49 45 -31 101 38 121 65 18 123 -23 144
-100 8 -29 16 -39 30 -39 18 0 20 7 20 95 0 95 0 95 -25 95 -16 0 -25 -6 -25
-15 0 -14 -3 -14 -30 0 -45 23 -156 20 -202 -7z"/>
<path d="M19785 10075 c-16 -8 -45 -14 -62 -15 -28 0 -33 -4 -33 -25 0 -22 4
-25 35 -25 l35 0 0 -180 c0 -186 -7 -224 -42 -235 -10 -4 -18 -15 -18 -26 0
-18 8 -19 110 -19 l110 0 0 25 c0 22 -4 25 -32 25 l-33 0 3 245 3 245 -23 -1
c-13 0 -36 -7 -53 -14z"/>
<path d="M20480 10074 c-19 -7 -47 -13 -62 -13 -23 -1 -28 -6 -28 -26 0 -22 5
-25 33 -25 l32 0 0 -168 c0 -187 13 -245 63 -278 61 -40 163 -36 233 11 39 25
49 24 49 -7 0 -16 9 -18 80 -18 79 0 80 0 80 25 0 22 -4 25 -37 25 l-38 0 3
245 c3 238 3 245 -16 245 -11 0 -36 -7 -55 -15 -20 -8 -50 -15 -67 -15 -25 0
-30 -4 -30 -25 0 -22 4 -25 35 -25 l35 0 0 -168 0 -168 -27 -26 c-38 -35 -66
-48 -103 -48 -87 0 -101 39 -108 293 -5 218 -1 208 -72 181z"/>
<path d="M21570 10067 c-193 -102 -195 -416 -3 -507 100 -47 258 -15 319 66
28 37 29 40 8 48 -9 3 -29 -5 -48 -19 -148 -113 -283 -52 -303 137 l-6 58 135
0 c74 0 156 3 182 6 44 6 46 8 46 39 0 68 -48 143 -111 175 -56 29 -162 28
-219 -3z m171 -40 c23 -17 49 -72 49 -102 l0 -25 -125 0 -125 0 18 47 c22 59
68 93 126 93 23 0 48 -6 57 -13z"/>
<path d="M22408 10069 c-81 -42 -132 -115 -148 -212 -29 -181 85 -320 261
-319 151 1 259 119 259 284 0 119 -52 202 -155 249 -56 26 -167 25 -217 -2z
m170 -43 c83 -43 116 -245 60 -364 -34 -73 -120 -96 -183 -48 -101 78 -113
313 -20 395 40 35 96 42 143 17z"/>
<path d="M24245 10071 c-88 -40 -155 -152 -155 -261 0 -100 57 -207 131 -246
102 -52 243 -29 324 54 26 27 32 39 23 49 -15 19 -32 16 -54 -8 -50 -56 -160
-75 -220 -39 -42 27 -77 99 -82 172 l-4 58 128 0 c71 0 153 3 182 7 l54 6 -7
46 c-9 66 -51 130 -104 158 -56 29 -156 31 -216 4z m173 -53 c23 -26 42 -69
42 -99 0 -18 -8 -19 -126 -19 l-125 0 7 23 c24 80 67 117 134 117 35 0 52 -5
68 -22z"/>
<path d="M24814 10076 c-52 -23 -112 -84 -140 -144 -54 -115 -25 -271 64 -340
53 -41 94 -55 165 -54 76 0 137 26 193 83 38 39 38 41 20 55 -18 13 -23 11
-50 -15 -112 -106 -241 -70 -291 80 -35 106 0 239 74 283 40 23 112 24 145 2
21 -13 23 -21 19 -54 -4 -28 -1 -43 12 -55 36 -37 87 -11 87 45 0 81 -72 128
-193 128 -41 -1 -88 -7 -105 -14z"/>
<path d="M25920 10081 c-8 -6 -36 -13 -62 -16 -42 -6 -48 -10 -48 -31 0 -21 5
-24 35 -24 l35 0 0 -179 c0 -189 -6 -225 -39 -236 -12 -3 -21 -15 -21 -26 0
-18 8 -19 110 -19 l110 0 0 25 c0 22 -4 25 -32 25 l-33 0 3 182 c4 201 5 207
69 234 66 28 123 11 149 -45 13 -26 19 -71 22 -163 6 -155 -1 -195 -34 -210
-13 -6 -24 -19 -24 -30 0 -16 10 -18 110 -18 l110 0 0 25 c0 22 -4 25 -32 25
l-33 0 3 142 c6 271 -32 348 -175 348 -40 0 -74 -8 -110 -24 -54 -25 -63 -25
-63 6 0 19 -25 24 -50 9z"/>
<path d="M26584 10061 c-91 -53 -136 -136 -137 -256 -1 -161 105 -268 264
-267 82 0 131 23 187 87 50 57 72 119 72 205 0 154 -107 259 -265 260 -59 0
-78 -5 -121 -29z m187 -38 c60 -35 96 -162 80 -276 -15 -109 -58 -157 -140
-157 -58 0 -113 54 -136 134 -33 114 -4 257 62 298 36 22 97 23 134 1z"/>
<path d="M27478 10065 c-116 -61 -174 -213 -133 -351 55 -183 310 -240 436
-96 129 146 91 378 -74 453 -63 28 -168 25 -229 -6z m191 -50 c45 -38 71 -119
71 -218 -1 -134 -48 -207 -134 -207 -95 0 -155 93 -155 240 -1 90 30 169 76
194 45 24 106 20 142 -9z"/>
<path d="M30655 10073 c-62 -33 -95 -67 -125 -126 -25 -51 -30 -71 -30 -136 0
-120 48 -204 144 -253 55 -28 156 -28 221 1 53 24 115 76 115 98 0 26 -30 25
-61 -1 -84 -71 -192 -75 -251 -9 -23 25 -44 85 -53 149 l-7 51 181 5 c99 2
183 6 186 9 11 12 -17 115 -41 151 -37 53 -94 78 -180 78 -44 -1 -80 -7 -99
-17z m156 -43 c22 -12 44 -51 54 -97 l7 -33 -126 0 c-90 0 -126 3 -126 12 0
26 41 94 67 110 31 20 94 23 124 8z"/>
<path d="M31150 10072 c-96 -48 -109 -190 -23 -249 16 -11 67 -37 115 -58 48
-21 95 -46 104 -56 45 -50 -3 -119 -82 -119 -75 0 -135 44 -149 110 -5 21 -13
30 -26 30 -17 0 -19 -8 -19 -95 l0 -95 30 0 c20 0 30 5 30 14 0 13 5 13 37 0
54 -23 163 -21 209 3 59 30 79 64 79 133 0 51 -4 63 -30 90 -16 18 -76 54
-132 80 -105 49 -137 80 -131 121 4 31 49 61 92 62 50 1 87 -29 111 -91 13
-35 26 -52 38 -52 15 0 17 11 17 95 0 95 0 95 -25 95 -16 0 -25 -6 -25 -15 0
-14 -3 -14 -30 0 -40 21 -146 20 -190 -3z"/>
<path d="M31625 10075 c-16 -8 -45 -14 -62 -15 -28 0 -33 -4 -33 -25 0 -22 4
-25 35 -25 l35 0 0 -179 c0 -189 -6 -225 -39 -236 -12 -3 -21 -15 -21 -26 0
-18 8 -19 110 -19 l110 0 0 25 c0 21 -5 25 -30 25 l-30 0 0 158 c0 153 1 158
26 196 15 22 43 46 67 57 39 17 42 17 46 1 6 -28 22 -42 50 -42 36 0 51 17 51
56 0 45 -22 64 -76 64 -50 0 -95 -19 -136 -58 l-27 -25 -7 41 c-7 46 -18 50
-69 27z"/>
<path d="M32096 10075 c-52 -18 -85 -53 -92 -96 -7 -41 14 -69 50 -69 33 0 47
22 44 65 -2 39 6 49 58 64 80 23 117 -11 122 -113 l4 -73 -56 -7 c-193 -22
-300 -132 -241 -246 41 -79 203 -86 288 -12 16 14 17 13 17 -11 0 -27 0 -27
80 -27 79 0 80 0 80 25 0 22 -4 25 -35 25 l-35 0 0 190 c0 218 -9 253 -74 284
-42 20 -155 21 -210 1z m184 -344 c0 -63 -2 -71 -26 -90 -37 -29 -96 -44 -127
-32 -49 19 -62 80 -27 124 22 28 108 66 153 66 27 1 27 1 27 -68z"/>
<path d="M29081 9659 c-28 -11 -43 -51 -31 -84 9 -23 25 -30 59 -25 17 2 8
-56 -20 -119 -22 -49 -13 -74 19 -55 53 32 93 206 59 258 -18 26 -53 37 -86
25z"/>
</g>
</svg>
